<?xml version="1.0"?>
<svg xmlns:rdf="http://www.w3.org/1999/02/22-rdf-syntax-ns#" xmlns="http://www.w3.org/2000/svg" xmlns:cc="http://creativecommons.org/ns#" xmlns:dc="http://purl.org/dc/elements/1.1/" id="svg2975" viewBox="0 0 620 810" version="1.0">
  <g id="g2326" transform="translate(15.547 7.7735)">
    <path id="path3799" opacity=".429" d="m346.08 465.54a269.47 64.291 0 1 1 -538.95 0 269.47 64.291 0 1 1 538.95 0z" transform="matrix(1.1015 0 0 1 217.92 262.82)"/>
    <path id="path1564" stroke="#000" stroke-width="6.3135" stroke-linecap="round" d="m280.71 3.8285c-54.77 7.2235-97.15 53.986-97.15 110.72 0 41.55 13.27 69.53 8.46 103.88-9.74 69.64-152.76 123.01-152.76 246.09 0 143.38 116.38 259.76 259.76 259.76 143.39 0 259.76-116.38 259.76-259.76 0-124.93-127.6-166.81-159.9-232.14-9.88-43.35 8.38-77.11 8.38-117.83 0-58.939-45.68-107.14-103.54-111.39-40.17-0.0497-11.88 1.7662-23.01 0.6685z"/>
    <path id="path1568" d="m257.61 237.12c-34.82 31.62-101.17 92.73-101.17 174.77 0 101.04 64.58 183.01 144.14 183.01s144.15-81.97 144.15-183.01c0-84.98-69.34-146.9-107.61-176.9-13.09-10.25-66.94-9.28-79.51 2.13z" stroke="#fff" stroke-linecap="round" stroke-width="6.3135" fill="#fff"/>
    <path id="rect1313" d="m166.79 255.99c67.82 46.71 172.12 51.22 248.93 1.4 14.3 39.78 229.05 149.05 121.75 365.69-75.99 33.48-407.09 30.36-471.64 0-137.82-241.78 89.39-329.71 100.96-367.09z" stroke="#16192b" stroke-linecap="round" stroke-width="11.747" fill="#00aad4"/>
    <path id="path1570" d="m324.91 69.585c-15.41 0-28.67 12.009-35.56 29.499-6.95-17.195-20.08-28.962-35.34-28.962-22.43 0-40.65 25.15-40.65 56.158 0 31.01 18.22 56.19 40.65 56.19 15.41 0 55.65-0.54 70.9-0.54 22.43 0 40.63-25.15 40.63-56.16 0-31.009-18.2-56.185-40.63-56.185z" fill="#fff"/>
    <path id="path1574" d="m347.49 356.37a34.345 47.477 0 1 1 -68.69 0 34.345 47.477 0 1 1 68.69 0z" transform="matrix(.59897 0 0 .59897 73.106 -65.659)" stroke="#000" stroke-linecap="round" stroke-width="5"/>
    <path id="path1576" d="m347.49 356.37a34.345 47.477 0 1 1 -68.69 0 34.345 47.477 0 1 1 68.69 0z" transform="matrix(.26241 0 0 .26241 180.7 45.419)" stroke="#000" stroke-linecap="round" stroke-width="5" fill="#fff"/>
    <path id="path1580" d="m347.49 356.37a34.345 47.477 0 1 1 -68.69 0 34.345 47.477 0 1 1 68.69 0z" transform="matrix(.60057 0 0 .60057 133.55 -67.367)" stroke="#000" stroke-linecap="round" stroke-width="5"/>
    <path id="path1582" d="m347.49 356.37a34.345 47.477 0 1 1 -68.69 0 34.345 47.477 0 1 1 68.69 0z" transform="matrix(.26311 0 0 .26311 238.12 45.111)" stroke="#000" stroke-linecap="round" stroke-width="5" fill="#fff"/>
    <path id="path2335" opacity=".081731" d="m383.49 268.76c39.22-5.85 252.53 146.55 145.24 349.75-515.09 131.43-336.95-283.77-145.24-349.75z"/>
    <path id="path1586" stroke="#000" stroke-width="5.6927" stroke-linecap="round" d="m418.5 250.85c-4.2 1.23-7.72 3.34-10.48 6.39-19 20.96 46.16 115.07 46.97 139.91-1.62 11.93-31.27 110.99-13.97 133.33 22.44 28.95 81.8-7.2 132.48-80.71 7.63-11.07 11.31-23.06 14.41-34.62 5.75-24.99 5.86-52-20.05-78.67-57.9-59.6-119.96-94.23-149.36-85.63z"/>
    <path id="path1614" stroke="#000" stroke-width="5.6927" stroke-linecap="round" d="m164.47 248.43c4.28 0.9 7.96 2.74 10.94 5.57 20.54 19.46-37.26 118.26-36.17 143.08 2.52 11.78 39.64 108.29 24.09 131.88-20.16 30.58-82.108-0.94-138.25-70.37-8.451-10.45-13.028-22.13-17.009-33.43-7.6315-24.48-9.8041-51.39 13.996-79.96 53.188-63.84 112.43-103.11 142.4-96.77z"/>
    <path id="path1624" d="m352.07 197.48c0 18.35-25.69 84.22-59.67 84.22s-63.44-65.87-63.44-84.22c0-18.34 27.58-33.24 61.56-33.24s61.55 14.9 61.55 33.24z" stroke="#000" stroke-linecap="round" stroke-width="12.281" fill="#f8b80c"/>
    <path id="path1628" d="m328.57 325.93a2.8571 6.4286 0 1 1 -5.71 0 2.8571 6.4286 0 1 1 5.71 0z" transform="matrix(1.2627 0 0 1.2627 -132.62 -216.55)" stroke="#000" stroke-linecap="round" stroke-width="5"/>
    <path id="path1630" d="m328.57 325.93a2.8571 6.4286 0 1 1 -5.71 0 2.8571 6.4286 0 1 1 5.71 0z" transform="matrix(1.2627 0 0 1.2627 -109.16 -217.45)" stroke="#000" stroke-linecap="round" stroke-width="5"/>
    <path id="path2395" d="m282.94 707.66c15.47 14.3 16.39 38.46 2.08 53.94-8.73 9.44-168.19 6.23-175.58-0.61-15.472-14.3-16.421-38.5-2.12-53.97 14.29-15.45 40.46-9 53.87-2.15 37.86-18.64 49.52-13.67 73.13 0.22 11.84-3.06 34.92-10.1 48.62 2.57z" stroke="#000" stroke-linecap="round" stroke-width="12.281" fill="#f8bc0c"/>
    <path id="path1610" d="m316.13 707.3c-15.47 14.3-16.38 38.46-2.08 53.93 8.73 9.45 168.19 6.24 175.58-0.6 15.47-14.3 16.42-38.5 2.12-53.97-14.28-15.45-40.46-9-53.87-2.15-37.86-18.65-49.51-13.68-73.13 0.22-11.83-3.06-34.91-10.1-48.62 2.57z" stroke="#000" stroke-linecap="round" stroke-width="12.281" fill="#f8bc0c"/>
  </g>
  <metadata>
    <rdf:RDF>
      <cc:Work>
        <dc:format>image/svg+xml</dc:format>
        <dc:type rdf:resource="http://purl.org/dc/dcmitype/StillImage"/>
        <cc:license rdf:resource="http://creativecommons.org/licenses/publicdomain/"/>
        <dc:publisher>
          <cc:Agent rdf:about="http://openclipart.org/">
            <dc:title>Openclipart</dc:title>
          </cc:Agent>
        </dc:publisher>
      </cc:Work>
      <cc:License rdf:about="http://creativecommons.org/licenses/publicdomain/">
        <cc:permits rdf:resource="http://creativecommons.org/ns#Reproduction"/>
        <cc:permits rdf:resource="http://creativecommons.org/ns#Distribution"/>
        <cc:permits rdf:resource="http://creativecommons.org/ns#DerivativeWorks"/>
      </cc:License>
    </rdf:RDF>
  </metadata>
</svg>
